<svg width="74" height="60" viewBox="0 0 74 60" fill="none" xmlns="http://www.w3.org/2000/svg">
<g clip-path="url(#clip0_82_206)">
<path opacity="0.2" d="M31.3477 0.275757C16.5373 0.275757 4.53406 12.279 4.53406 27.0894C4.53406 41.8998 16.5406 53.9031 31.3477 53.9031C46.1549 53.9031 58.1614 41.8966 58.1614 27.0894C58.1614 12.2823 46.1581 0.275757 31.3477 0.275757ZM31.3477 48.673C19.4265 48.673 9.76415 39.0106 9.76415 27.0894C9.76415 15.1682 19.4265 5.50585 31.3477 5.50585C43.2689 5.50585 52.9313 15.1682 52.9313 27.0894C52.9313 39.0106 43.2689 48.673 31.3477 48.673Z" fill="#7B68EE"/>
<path d="M0.656616 53.8079L5.87358 48.6566L11.409 54.192L6.19205 59.3433L0.656616 53.8079Z" fill="#7B68EE"/>
<path d="M31.4823 54.1789C16.5438 54.1789 4.39282 42.0279 4.39282 27.0895C4.39282 12.151 16.5471 0 31.4823 0C38.0355 0 44.3622 2.37045 49.2935 6.67798C54.1789 10.9428 57.3734 16.8066 58.2927 23.1923C58.3452 23.5502 58.0957 23.8851 57.7378 23.9343C57.3767 23.9869 57.0451 23.7373 56.9958 23.3795C55.1835 10.7984 44.2144 1.31327 31.4823 1.31327C17.2694 1.31327 5.70609 12.8766 5.70609 27.0895C5.70609 41.3023 17.2694 52.8657 31.4823 52.8657C37.7138 52.8657 43.7285 50.6134 48.4169 46.5226C48.8306 46.1614 49.2377 45.7839 49.6284 45.3964C53.4205 41.6372 55.919 36.8865 56.8547 31.6596C56.917 31.3018 57.2585 31.0654 57.6164 31.1278C57.9742 31.1901 58.2106 31.5316 58.1482 31.8895C57.1633 37.3822 54.54 42.3759 50.5542 46.3256C50.1438 46.7294 49.717 47.13 49.2837 47.5075C44.3556 51.8085 38.0322 54.1756 31.4856 54.1756L31.4823 54.1789Z" fill="#101828"/>
<path d="M31.4594 49.2574C19.2361 49.2574 9.29468 39.3127 9.29468 27.0927C9.29468 14.8728 19.2361 4.92474 31.4594 4.92474C40.58 4.92474 48.8996 10.644 52.1631 19.1606C52.2944 19.4988 52.1237 19.8796 51.7855 20.0076C51.4473 20.1357 51.0665 19.9682 50.9385 19.6301C47.8687 11.6191 40.0416 6.23801 31.4594 6.23801C19.9617 6.23801 10.6079 15.5918 10.6079 27.0895C10.6079 38.5871 19.9617 47.9409 31.4594 47.9409C36.4991 47.9409 41.3647 46.1187 45.1601 42.8093C45.495 42.5171 45.8233 42.2118 46.1385 41.8998C49.2049 38.8596 51.2274 35.0183 51.9858 30.7896C52.0482 30.4317 52.3896 30.1953 52.7475 30.2577C53.1054 30.3201 53.3417 30.6615 53.2794 31.0194C52.475 35.5141 50.3245 39.5983 47.0643 42.8323C46.7294 43.1639 46.3781 43.4889 46.0235 43.8008C41.9885 47.3204 36.8175 49.2574 31.4594 49.2574Z" fill="#101828"/>
<path d="M9.08126 51.2306C8.91382 51.2306 8.74638 51.165 8.61834 51.0369C8.36225 50.7808 8.36225 50.3639 8.61834 50.1078L12.7256 45.9972C12.9817 45.7412 13.3986 45.7412 13.6547 45.9972C13.9108 46.2533 13.9108 46.6703 13.6547 46.9264L9.54747 51.0369C9.41943 51.165 9.25199 51.2306 9.08455 51.2306H9.08126Z" fill="#101828"/>
<path d="M6.19204 60C6.02131 60 5.85387 59.9343 5.72583 59.8063C5.46974 59.5469 5.47302 59.1332 5.73239 58.8771L10.6178 54.0509L6.01146 49.4446L1.11954 54.2741C0.860165 54.5302 0.446485 54.5269 0.190398 54.2675C-0.06569 54.0082 -0.0624068 53.5945 0.196964 53.3384L5.41393 48.1871C5.74881 47.8588 6.28725 47.8621 6.61557 48.1904L11.8752 53.45C12.0361 53.6109 12.1247 53.8276 12.1247 54.0541C12.1247 54.284 12.0328 54.4974 11.8719 54.6582L6.65497 59.8095C6.52692 59.9376 6.35948 60 6.19204 60Z" fill="#101828"/>
<path d="M45.7773 37.5398C45.7773 37.5398 45.751 37.5398 45.7379 37.5398C45.0583 37.5234 44.4936 37.09 44.2966 36.4399L37.1229 15.8249C37.1163 15.7986 37.0933 15.7198 36.9882 15.7133C36.8799 15.7034 36.8471 15.7789 36.8372 15.8052L29.4107 33.0977C29.1644 33.6689 28.6293 34.0268 28.0088 34.0367H27.9858C27.3751 34.0367 26.8367 33.6952 26.5806 33.1371L22.4339 24.1576C22.3945 24.0722 22.3256 24.0492 22.2731 24.046C22.2205 24.0427 22.1483 24.0558 22.099 24.1346L20.2276 27.1748C19.7122 28.012 18.783 28.5308 17.7981 28.5308H14.6101C14.249 28.5308 13.9535 28.2353 13.9535 27.8741C13.9535 27.513 14.249 27.2175 14.6101 27.2175H17.7981C18.3267 27.2175 18.829 26.9384 19.1081 26.4854L20.9795 23.4451C21.275 22.9724 21.797 22.7031 22.3519 22.736C22.9034 22.7688 23.3926 23.1037 23.6224 23.606L27.7691 32.5855C27.8249 32.707 27.93 32.7201 27.9858 32.7234C28.0416 32.7234 28.1467 32.7037 28.1992 32.5822L35.6257 15.2897C35.8752 14.7086 36.4465 14.3639 37.0769 14.4066C37.7007 14.4525 38.2096 14.8629 38.3803 15.4605L45.5409 36.0361C45.5902 36.1937 45.6887 36.2265 45.7642 36.2265C45.8397 36.2331 45.9415 36.2036 45.9874 36.0722L51.2175 22.8903C51.3981 22.3847 51.8807 22.0235 52.4421 21.9973C53.0036 21.9677 53.519 22.2796 53.7587 22.7885L55.2657 25.9995C55.5185 26.5379 56.0635 26.8859 56.6577 26.8859H72.719C73.0802 26.8859 73.3757 27.1814 73.3757 27.5425C73.3757 27.9037 73.0802 28.1992 72.719 28.1992H56.6577C55.5579 28.1992 54.5434 27.5557 54.0772 26.5576L52.5702 23.3466C52.5702 23.3466 52.5505 23.304 52.5078 23.3073C52.4618 23.3073 52.4553 23.3335 52.4487 23.3532L47.2186 36.5352C47.0052 37.1393 46.4372 37.5398 45.774 37.5398H45.7773Z" fill="#7B68EE"/>
</g>
<defs>
<clipPath id="clip0_82_206">
<rect width="73.3822" height="60" fill="white"/>
</clipPath>
</defs>
</svg>
