<svg width="60" height="60" viewBox="0 0 60 60" fill="none" xmlns="http://www.w3.org/2000/svg">
<g clip-path="url(#clip0_83_247)">
<path d="M37.3528 43.6765C38.7335 43.6765 39.8528 42.5572 39.8528 41.1765C39.8528 39.7957 38.7335 38.6765 37.3528 38.6765C35.9721 38.6765 34.8528 39.7957 34.8528 41.1765C34.8528 42.5572 35.9721 43.6765 37.3528 43.6765Z" fill="#7B68EE"/>
<path d="M43.5293 33.6765C44.91 33.6765 46.0293 32.5572 46.0293 31.1765C46.0293 29.7957 44.91 28.6765 43.5293 28.6765C42.1486 28.6765 41.0293 29.7957 41.0293 31.1765C41.0293 32.5572 42.1486 33.6765 43.5293 33.6765Z" fill="#7B68EE"/>
<path d="M26.1765 22.7941C27.5572 22.7941 28.6765 21.6748 28.6765 20.2941C28.6765 18.9134 27.5572 17.7941 26.1765 17.7941C24.7958 17.7941 23.6765 18.9134 23.6765 20.2941C23.6765 21.6748 24.7958 22.7941 26.1765 22.7941Z" fill="#7B68EE"/>
<path opacity="0.2" d="M30.3088 0.5C32.9 0.5 35.4 0.867647 37.7941 1.49118C25.0735 4.81176 15.6705 16.3471 15.6705 30.1088C15.6705 43.8706 25.0735 55.4059 37.7941 58.7265C35.4 59.3529 32.9 59.7176 30.3088 59.7176C13.9558 59.7176 0.699951 46.4618 0.699951 30.1088C0.699951 13.7559 13.9558 0.5 30.3088 0.5Z" fill="#7B68EE"/>
<path d="M30 60C13.4588 60 0 46.5412 0 30C0 13.4588 13.4588 0 30 0C46.5412 0 60 13.4588 60 30C60 46.5412 46.5412 60 30 60ZM30 1.17647C14.1059 1.17647 1.17647 14.1059 1.17647 30C1.17647 45.8941 14.1059 58.8235 30 58.8235C45.8941 58.8235 58.8235 45.8941 58.8235 30C58.8235 14.1059 45.8941 1.17647 30 1.17647Z" fill="#101828"/>
<path d="M43.3824 34.1176C41.6795 34.1176 40.2942 32.7323 40.2942 31.0294C40.2942 29.3265 41.6795 27.9412 43.3824 27.9412C45.0854 27.9412 46.4707 29.3265 46.4707 31.0294C46.4707 32.7323 45.0854 34.1176 43.3824 34.1176ZM43.3824 29.1176C42.3295 29.1176 41.4707 29.9765 41.4707 31.0294C41.4707 32.0823 42.3295 32.9412 43.3824 32.9412C44.4354 32.9412 45.2942 32.0823 45.2942 31.0294C45.2942 29.9765 44.4354 29.1176 43.3824 29.1176Z" fill="#7B68EE"/>
<path d="M26.0294 23.2353C24.3265 23.2353 22.9412 21.85 22.9412 20.1471C22.9412 18.4441 24.3265 17.0588 26.0294 17.0588C27.7323 17.0588 29.1176 18.4441 29.1176 20.1471C29.1176 21.85 27.7323 23.2353 26.0294 23.2353ZM26.0294 18.2353C24.9765 18.2353 24.1176 19.0941 24.1176 20.1471C24.1176 21.2 24.9765 22.0588 26.0294 22.0588C27.0823 22.0588 27.9412 21.2 27.9412 20.1471C27.9412 19.0941 27.0823 18.2353 26.0294 18.2353Z" fill="#7B68EE"/>
<path d="M37.2059 44.1176C35.503 44.1176 34.1177 42.7323 34.1177 41.0294C34.1177 39.3265 35.503 37.9412 37.2059 37.9412C38.9089 37.9412 40.2941 39.3265 40.2941 41.0294C40.2941 42.7323 38.9089 44.1176 37.2059 44.1176ZM37.2059 39.1176C36.153 39.1176 35.2941 39.9765 35.2941 41.0294C35.2941 42.0823 36.153 42.9412 37.2059 42.9412C38.2589 42.9412 39.1177 42.0823 39.1177 41.0294C39.1177 39.9765 38.2589 39.1176 37.2059 39.1176Z" fill="#7B68EE"/>
<path d="M22.8088 15.9353C22.6147 15.9353 22.4235 15.8382 22.3118 15.6618C19.9824 11.9794 18.3324 7.96178 17.4029 3.71766C17.3324 3.40001 17.5353 3.08531 17.8529 3.01766C18.1706 2.95001 18.4853 3.15001 18.5529 3.46766C19.4529 7.57648 21.05 11.4706 23.3059 15.0353C23.4794 15.3088 23.3971 15.6735 23.1235 15.8471C23.0265 15.9088 22.9176 15.9382 22.8088 15.9382V15.9353Z" fill="#101828"/>
<path d="M38.3529 29.653C38.2705 29.653 38.1852 29.6353 38.1029 29.5971C35.047 28.1647 32.194 26.3206 29.6235 24.1177C29.3764 23.9059 29.347 23.5353 29.5587 23.2883C29.7705 23.0412 30.1411 23.0118 30.3882 23.2235C32.8793 25.3588 35.644 27.1441 38.6029 28.5324C38.897 28.6706 39.0235 29.0206 38.8852 29.3147C38.7852 29.5294 38.5735 29.653 38.3529 29.653Z" fill="#101828"/>
<path d="M53.9736 33.1176C52.1059 33.1176 50.2295 32.9794 48.3942 32.7059C48.0736 32.6588 47.8501 32.3588 47.9001 32.0382C47.9501 31.7176 48.2471 31.497 48.5677 31.5441C51.8824 32.0382 55.3295 32.0735 58.6559 31.6441C58.9736 31.6 59.2736 31.8294 59.3148 32.1529C59.3559 32.4765 59.1295 32.7706 58.8059 32.8118C57.2148 33.0176 55.5883 33.1206 53.9736 33.1206V33.1176Z" fill="#101828"/>
<path d="M31.9382 38.7441C31.8529 38.7441 31.7676 38.7265 31.6853 38.6882C22.3882 34.2676 11.6265 33.997 2.15586 37.9441C1.85586 38.0706 1.51174 37.9265 1.38527 37.6265C1.2588 37.3265 1.40292 36.9823 1.70292 36.8559C11.4794 32.7823 22.5912 33.0588 32.1882 37.6235C32.4823 37.7618 32.6059 38.1147 32.4676 38.4088C32.3676 38.6206 32.1559 38.7441 31.9353 38.7441H31.9382Z" fill="#101828"/>
<path d="M8.55001 48.8529C8.3559 48.8529 8.16766 48.7588 8.0559 48.5823C7.87943 48.3088 7.95884 47.9441 8.23237 47.7706C11.7412 45.5088 14.8177 42.6794 17.3677 39.3647C19.6206 36.4382 21.403 33.2029 22.6706 29.7529C23.1941 28.3235 23.6324 26.8471 23.9706 25.3647C24.0441 25.0471 24.3588 24.85 24.6765 24.9235C24.9941 24.9971 25.1912 25.3118 25.1177 25.6294C24.7677 27.1588 24.3177 28.6853 23.7735 30.1618C22.4647 33.7265 20.6235 37.0647 18.2971 40.0882C15.6647 43.5118 12.4912 46.4323 8.86766 48.7676C8.7706 48.8323 8.65884 48.8618 8.55001 48.8618V48.8529Z" fill="#101828"/>
<path d="M47.9089 53.4294C47.7059 53.4294 47.5089 53.3265 47.4001 53.1382C46.6148 51.7971 45.7295 50.4882 44.7736 49.25C43.5765 47.7029 42.253 46.2471 40.8412 44.9235C40.603 44.7029 40.5912 44.3294 40.8148 44.0912C41.0354 43.8529 41.4089 43.8412 41.6471 44.0647C43.1059 45.4324 44.4736 46.9323 45.7059 48.5294C46.6942 49.8059 47.6059 51.1559 48.4177 52.5412C48.5824 52.8206 48.4883 53.1824 48.2089 53.3471C48.1148 53.4029 48.0148 53.4265 47.9118 53.4265L47.9089 53.4294Z" fill="#101828"/>
<path d="M16.5471 56.3618C16.2883 56.3618 16.053 56.1912 15.9795 55.9294C15.8942 55.6177 16.0765 55.2912 16.3883 55.2059C22.503 53.5147 28.4148 49.8559 33.4824 44.6265C33.7089 44.3912 34.0824 44.3883 34.3148 44.6118C34.5471 44.8383 34.553 45.2118 34.3265 45.4441C29.1118 50.8265 23.0148 54.5941 16.7001 56.3412C16.6471 56.3559 16.5942 56.3618 16.5442 56.3618H16.5471Z" fill="#101828"/>
<path d="M40.4293 37.4677C40.3234 37.4677 40.2176 37.4382 40.1234 37.3794C39.847 37.2088 39.7587 36.8471 39.9293 36.5706C40.1205 36.2588 40.3087 35.9471 40.4911 35.6353C40.6558 35.3559 41.0146 35.2588 41.297 35.4235C41.5764 35.5882 41.6705 35.9471 41.5087 36.2294C41.3205 36.55 41.1293 36.8677 40.9352 37.1882C40.8234 37.3677 40.6323 37.4677 40.4323 37.4677H40.4293Z" fill="#101828"/>
<path d="M45.2442 26.8324C45.1825 26.8324 45.1236 26.8235 45.0619 26.803C44.7531 26.703 44.5854 26.3706 44.6854 26.0618C46.9089 19.2441 47.3854 12.4206 46.0648 6.32649C45.9972 6.00884 46.1972 5.69707 46.5148 5.62649C46.8325 5.55884 47.1442 5.75884 47.2148 6.07649C48.5825 12.3735 48.0942 19.4088 45.806 26.4265C45.7236 26.6735 45.4942 26.8324 45.2472 26.8324H45.2442Z" fill="#101828"/>
<path d="M30.9764 18.4765C30.7676 18.4765 30.5646 18.3647 30.4587 18.1677C30.3029 17.8824 30.4117 17.5235 30.697 17.3706C36.6411 14.153 41.4793 9.82649 44.6881 4.85884C44.8646 4.58531 45.2293 4.50884 45.5029 4.68531C45.7764 4.86178 45.8529 5.22649 45.6764 5.50002C42.3587 10.6324 37.3734 15.0971 31.2558 18.4088C31.1676 18.4559 31.0705 18.4794 30.9764 18.4794V18.4765Z" fill="#101828"/>
<path d="M7.86174 24.3177C5.82351 24.3177 3.81174 24.1853 1.85292 23.9177C1.53233 23.8735 1.30586 23.5765 1.34998 23.2559C1.39409 22.9324 1.69409 22.7088 2.01174 22.753C7.65292 23.5235 13.7382 23.1471 19.6059 21.6677C19.9559 21.5794 20.3059 21.4883 20.6529 21.3912C20.9647 21.303 21.2912 21.4883 21.3764 21.803C21.4617 22.1177 21.2794 22.4412 20.9647 22.5265C20.6088 22.6235 20.2529 22.7177 19.8941 22.8088C15.9176 23.8118 11.8412 24.3206 7.86468 24.3206L7.86174 24.3177Z" fill="#101828"/>
</g>
<defs>
<clipPath id="clip0_83_247">
<rect width="60" height="60" fill="white"/>
</clipPath>
</defs>
</svg>
