<svg width="77" height="60" viewBox="0 0 77 60" fill="none" xmlns="http://www.w3.org/2000/svg">
<g clip-path="url(#clip0_83_227)">
<path d="M52.5082 55.2563V12.7459C52.5082 12.193 52.9564 11.7448 53.5093 11.7448H64.5965C65.1494 11.7448 65.5976 12.193 65.5976 12.7459V55.2563H52.5114H52.5082Z" fill="#7B68EE" fill-opacity="0.2"/>
<path d="M31.8976 55.2563V22.5605C31.8976 22.0076 32.3458 21.5594 32.8987 21.5594H43.9859C44.5388 21.5594 44.987 22.0076 44.987 22.5605V55.2563H31.9009H31.8976Z" fill="#7B68EE"/>
<path d="M23.3719 31.7012H12.2847C11.7318 31.7012 11.2836 32.1494 11.2836 32.7023V34.3184H20.4242C20.9771 34.3184 21.4253 34.7666 21.4253 35.3195V54.9291H24.3697V32.7023C24.3697 32.1494 23.9215 31.7012 23.3686 31.7012H23.3719Z" fill="#7B68EE"/>
<path d="M65.4308 56.0742C65.0709 56.0742 64.7765 55.7797 64.7765 55.4199V12.5627H52.9989V55.4199C52.9989 55.7797 52.7045 56.0742 52.3446 56.0742C51.9847 56.0742 51.6903 55.7797 51.6903 55.4199V12.1342C51.6903 11.65 52.0829 11.2574 52.5671 11.2574H65.205C65.6892 11.2574 66.0818 11.65 66.0818 12.1342V55.4231C66.0818 55.783 65.7874 56.0775 65.4275 56.0775L65.4308 56.0742Z" fill="#101828"/>
<path d="M44.82 56.0742C44.4602 56.0742 44.1657 55.7797 44.1657 55.4199V22.3773H32.3882V55.4199C32.3882 55.7797 32.0938 56.0742 31.7339 56.0742C31.374 56.0742 31.0796 55.7797 31.0796 55.4199V21.9455C31.0796 21.4613 31.4722 21.0687 31.9564 21.0687H44.5943C45.0785 21.0687 45.4711 21.4613 45.4711 21.9455V55.4199C45.4711 55.7797 45.1766 56.0742 44.8168 56.0742H44.82Z" fill="#101828"/>
<path d="M24.2093 56.0741C23.8495 56.0741 23.555 55.7797 23.555 55.4198V32.1919H11.7775V55.4198C11.7775 55.7797 11.483 56.0741 11.1232 56.0741C10.7633 56.0741 10.4689 55.7797 10.4689 55.4198V31.7601C10.4689 31.2759 10.8615 30.8833 11.3456 30.8833H23.9836C24.4678 30.8833 24.8604 31.2759 24.8604 31.7601V55.4198C24.8604 55.7797 24.5659 56.0741 24.2061 56.0741H24.2093Z" fill="#101828"/>
<path d="M76.2268 60H0.654308C0.294438 60 0 59.7056 0 59.3457C0 58.9858 0.294438 58.6914 0.654308 58.6914H76.2268C76.5867 58.6914 76.8811 58.9858 76.8811 59.3457C76.8811 59.7056 76.5867 60 76.2268 60Z" fill="#101828"/>
<path d="M58.2563 8.00218C58.1844 8.00218 58.1091 7.9891 58.0371 7.96292C57.6969 7.84188 57.5202 7.46565 57.6413 7.12541L59.1854 2.81352L54.8736 1.26936C54.5333 1.14831 54.3567 0.772085 54.4777 0.431845C54.5987 0.091605 54.975 -0.0850581 55.3152 0.0359888L60.8605 2.02181L58.8746 7.56707C58.7798 7.83533 58.5279 8.00218 58.2596 8.00218H58.2563Z" fill="#7B68EE"/>
<path d="M52.6587 25.1058C52.4918 25.1058 52.325 25.0403 52.1974 24.9127C51.9422 24.6576 51.9422 24.2421 52.1974 23.9869L64.1843 12C64.4395 11.7448 64.8549 11.7448 65.1101 12C65.3653 12.2552 65.3653 12.6706 65.1101 12.9258L53.1232 24.9127C52.9956 25.0403 52.8288 25.1058 52.6619 25.1058H52.6587Z" fill="#101828"/>
<path d="M52.6358 15.314C52.469 15.314 52.3021 15.2486 52.1745 15.121C51.9194 14.8658 51.9194 14.4504 52.1745 14.1952L54.3697 12C54.6249 11.7448 55.0404 11.7448 55.2956 12C55.5508 12.2552 55.5508 12.6706 55.2956 12.9258L53.1004 15.121C52.9728 15.2486 52.8059 15.314 52.6391 15.314H52.6358Z" fill="#101828"/>
<path d="M52.8026 34.7764C52.6357 34.7764 52.4689 34.711 52.3413 34.5834C52.0861 34.3282 52.0861 33.9128 52.3413 33.6576L64.9138 21.0851C65.169 20.8299 65.5845 20.8299 65.8397 21.0851C66.0948 21.3402 66.0948 21.7557 65.8397 22.0109L53.2671 34.5834C53.1395 34.711 52.9727 34.7764 52.8058 34.7764H52.8026Z" fill="#101828"/>
<path d="M52.8288 44.5649C52.662 44.5649 52.4951 44.4995 52.3675 44.3719C52.1124 44.1167 52.1124 43.7012 52.3675 43.446L64.8583 30.9553C65.1134 30.7001 65.5289 30.7001 65.7841 30.9553C66.0393 31.2105 66.0393 31.626 65.7841 31.8811L53.2934 44.3719C53.1658 44.4995 52.9989 44.5649 52.8321 44.5649H52.8288Z" fill="#101828"/>
<path d="M52.711 54.4972C52.5442 54.4972 52.3773 54.4318 52.2497 54.3042C51.9946 54.049 51.9946 53.6336 52.2497 53.3784L64.7601 40.868C65.0153 40.6128 65.4308 40.6128 65.6859 40.868C65.9411 41.1232 65.9411 41.5387 65.6859 41.7939L53.1756 54.3042C53.048 54.4318 52.8811 54.4972 52.7143 54.4972H52.711Z" fill="#101828"/>
<path d="M60.6445 56.3784C60.4776 56.3784 60.3108 56.313 60.1832 56.1854C59.928 55.9302 59.928 55.5147 60.1832 55.2595L64.7306 50.7121C64.9858 50.4569 65.4013 50.4569 65.6565 50.7121C65.9117 50.9673 65.9117 51.3827 65.6565 51.6379L61.109 56.1854C60.9815 56.313 60.8146 56.3784 60.6478 56.3784H60.6445Z" fill="#101828"/>
<path d="M5.64011 28.7764C5.39475 28.7764 5.15919 28.639 5.04796 28.4002C4.8942 28.073 5.03488 27.6837 5.35876 27.53L57.6445 2.82005C57.9716 2.66629 58.3609 2.80369 58.5147 3.13085C58.6685 3.458 58.5278 3.84731 58.2039 4.00108L5.92146 28.7143C5.82986 28.7568 5.73499 28.7764 5.64338 28.7764H5.64011Z" fill="#7B68EE"/>
</g>
<defs>
<clipPath id="clip0_83_227">
<rect width="76.8811" height="60" fill="white"/>
</clipPath>
</defs>
</svg>
