<svg width="155" height="46" viewBox="0 0 155 46" fill="none" xmlns="http://www.w3.org/2000/svg">
<path d="M54.16 31V13.48H57.568V31H54.16ZM57.088 23.704V20.824L64.096 20.8V23.68L57.088 23.704ZM57.088 16.36V13.48H64.432V16.36H57.088ZM71.0982 31.408C69.5942 31.408 68.4262 30.912 67.5942 29.92C66.7782 28.928 66.3702 27.456 66.3702 25.504V17.944H69.7062V25.792C69.7062 26.592 69.9302 27.232 70.3782 27.712C70.8262 28.176 71.4342 28.408 72.2022 28.408C72.9702 28.408 73.5942 28.16 74.0742 27.664C74.5702 27.168 74.8182 26.496 74.8182 25.648V17.944H78.1542V31H75.5142V25.456H75.7782C75.7782 26.768 75.6102 27.864 75.2742 28.744C74.9382 29.624 74.4342 30.288 73.7622 30.736C73.0902 31.184 72.2502 31.408 71.2422 31.408H71.0982ZM81.5063 31V17.968H84.1463V23.56H83.9063C83.9063 22.232 84.0823 21.128 84.4343 20.248C84.7863 19.352 85.3063 18.68 85.9943 18.232C86.6983 17.784 87.5703 17.56 88.6103 17.56H88.7543C90.3063 17.56 91.4823 18.064 92.2823 19.072C93.0823 20.064 93.4823 21.552 93.4823 23.536V31H90.1463V23.248C90.1463 22.448 89.9143 21.8 89.4503 21.304C89.0023 20.808 88.3783 20.56 87.5783 20.56C86.7623 20.56 86.0983 20.816 85.5863 21.328C85.0903 21.824 84.8423 22.496 84.8423 23.344V31H81.5063ZM96.5888 31V17.968H99.2288V23.56H98.9888C98.9888 22.232 99.1648 21.128 99.5168 20.248C99.8688 19.352 100.389 18.68 101.077 18.232C101.781 17.784 102.653 17.56 103.693 17.56H103.837C105.389 17.56 106.565 18.064 107.365 19.072C108.165 20.064 108.565 21.552 108.565 23.536V31H105.229V23.248C105.229 22.448 104.997 21.8 104.533 21.304C104.085 20.808 103.461 20.56 102.661 20.56C101.845 20.56 101.181 20.816 100.669 21.328C100.173 21.824 99.9248 22.496 99.9248 23.344V31H96.5888ZM117.503 31.456C116.383 31.456 115.399 31.264 114.551 30.88C113.719 30.496 113.023 29.984 112.463 29.344C111.919 28.688 111.503 27.96 111.215 27.16C110.943 26.36 110.807 25.544 110.807 24.712V24.256C110.807 23.392 110.943 22.56 111.215 21.76C111.503 20.944 111.919 20.224 112.463 19.6C113.023 18.96 113.711 18.456 114.527 18.088C115.343 17.704 116.287 17.512 117.359 17.512C118.767 17.512 119.943 17.824 120.887 18.448C121.847 19.056 122.567 19.864 123.047 20.872C123.527 21.864 123.767 22.936 123.767 24.088V25.288H112.223V23.248H121.679L120.647 24.256C120.647 23.424 120.527 22.712 120.287 22.12C120.047 21.528 119.679 21.072 119.183 20.752C118.703 20.432 118.095 20.272 117.359 20.272C116.623 20.272 115.999 20.44 115.487 20.776C114.975 21.112 114.583 21.6 114.311 22.24C114.055 22.864 113.927 23.616 113.927 24.496C113.927 25.312 114.055 26.04 114.311 26.68C114.567 27.304 114.959 27.8 115.487 28.168C116.015 28.52 116.687 28.696 117.503 28.696C118.319 28.696 118.983 28.536 119.495 28.216C120.007 27.88 120.335 27.472 120.479 26.992H123.551C123.359 27.888 122.991 28.672 122.447 29.344C121.903 30.016 121.207 30.536 120.359 30.904C119.527 31.272 118.575 31.456 117.503 31.456ZM126.242 31V13.48H129.578V31H126.242ZM124.61 15.976V13.48H129.578V15.976H124.61ZM133.531 31V17.968H136.867V31H133.531ZM131.707 20.464V17.968H136.867V20.464H131.707ZM134.755 16.408C134.099 16.408 133.611 16.24 133.291 15.904C132.987 15.552 132.835 15.112 132.835 14.584C132.835 14.056 132.987 13.624 133.291 13.288C133.611 12.952 134.099 12.784 134.755 12.784C135.411 12.784 135.891 12.952 136.195 13.288C136.499 13.624 136.651 14.056 136.651 14.584C136.651 15.112 136.499 15.552 136.195 15.904C135.891 16.24 135.411 16.408 134.755 16.408ZM146.495 31.456C145.343 31.456 144.327 31.272 143.447 30.904C142.567 30.536 141.823 30.04 141.215 29.416C140.607 28.776 140.143 28.056 139.823 27.256C139.519 26.456 139.367 25.624 139.367 24.76V24.256C139.367 23.36 139.527 22.512 139.847 21.712C140.183 20.896 140.655 20.176 141.263 19.552C141.887 18.912 142.639 18.416 143.519 18.064C144.399 17.696 145.391 17.512 146.495 17.512C147.599 17.512 148.591 17.696 149.471 18.064C150.351 18.416 151.095 18.912 151.703 19.552C152.327 20.176 152.799 20.896 153.119 21.712C153.439 22.512 153.599 23.36 153.599 24.256V24.76C153.599 25.624 153.439 26.456 153.119 27.256C152.815 28.056 152.359 28.776 151.751 29.416C151.143 30.04 150.399 30.536 149.519 30.904C148.639 31.272 147.631 31.456 146.495 31.456ZM146.495 28.6C147.311 28.6 147.999 28.424 148.559 28.072C149.119 27.704 149.543 27.216 149.831 26.608C150.119 25.984 150.263 25.28 150.263 24.496C150.263 23.696 150.111 22.992 149.807 22.384C149.519 21.76 149.087 21.272 148.511 20.92C147.951 20.552 147.279 20.368 146.495 20.368C145.711 20.368 145.031 20.552 144.455 20.92C143.895 21.272 143.463 21.76 143.159 22.384C142.855 22.992 142.703 23.696 142.703 24.496C142.703 25.28 142.847 25.984 143.135 26.608C143.439 27.216 143.871 27.704 144.431 28.072C144.991 28.424 145.679 28.6 146.495 28.6Z" fill="#101828"/>
<g clip-path="url(#clip0_76_866)">
<path d="M24.2663 18.3853C23.3604 19.0845 22.2221 19.5022 20.9814 19.4985C18.1206 19.4893 15.7565 17.1985 15.6914 14.3686C15.6226 11.4117 18.0258 8.99392 21 8.99392C23.9742 8.99392 26.3104 11.3454 26.3104 14.2471C26.3104 14.4937 26.2919 14.7366 26.2584 14.9758L42.0019 23.966V14.6924C42.0019 12.4108 40.7724 10.304 38.7747 9.1632L24.2272 0.8556C22.2295 -0.2852 19.7705 -0.2852 17.7728 0.8556L3.22719 9.1632C1.2295 10.304 0 12.4108 0 14.6924V17.4855L17.7337 27.6147C18.6396 26.9155 19.7779 26.4978 21.0186 26.5015C23.8794 26.5107 26.2435 28.8015 26.3086 31.6314C26.3774 34.5883 23.9742 37.0061 21 37.0061C18.0258 37.0061 15.6895 34.6546 15.6895 31.7529C15.6895 31.5063 15.7081 31.2634 15.7416 31.0242L0 22.034V31.3076C0 33.5892 1.2295 35.696 3.22719 36.8368L17.7728 45.1444C19.7705 46.2852 22.2295 46.2852 24.2272 45.1444L38.7728 36.8368C40.7705 35.696 42 33.5892 42 31.3076V28.5145L24.2663 18.3853Z" fill="#7B68EE"/>
</g>
<defs>
<clipPath id="clip0_76_866">
<rect width="42" height="46" fill="white"/>
</clipPath>
</defs>
</svg>
